<svg width="234" height="64" viewBox="0 0 234 64" fill="none" xmlns="http://www.w3.org/2000/svg">
<path fill-rule="evenodd" clip-rule="evenodd" d="M117 62C133.569 62 147 48.5685 147 32C147 15.4315 133.569 2 117 2C100.431 2 87 15.4315 87 32C87 48.5685 100.431 62 117 62Z" fill="white"/>
<path d="M115.114 34.908L107.823 42.2414C106.817 43.2529 105.057 43.2529 104.051 42.2414L95.7543 33.8966C94.7486 32.8851 94.7486 31.1149 95.7543 30.1034L104.051 21.7586C105.057 20.7471 106.817 20.7471 107.823 21.7586L115.114 29.092C116.12 30.1034 117.88 30.1034 118.886 29.092L126.177 21.7586C127.183 20.7471 128.943 20.7471 129.949 21.7586L138.246 30.1034C139.251 31.1149 139.251 32.8851 138.246 33.8966L129.949 42.2414C128.943 43.2529 127.183 43.2529 126.177 42.2414L118.886 34.908C117.754 33.8966 116.12 33.8966 115.114 34.908Z" fill="#9201E4"/>
</svg>
