<svg width="234" height="64" viewBox="0 0 234 64" fill="none" xmlns="http://www.w3.org/2000/svg">
<rect x="87" y="2" width="60" height="60" rx="30" fill="white"/>
<path fill-rule="evenodd" clip-rule="evenodd" d="M117 54.5C104.593 54.5 94.5 44.4067 94.5 32C94.5 19.7112 104.498 9.62019 116.788 9.50466L116.872 9.50047L116.915 9.5028L117.003 9.5C129.407 9.5 139.5 19.5933 139.5 32C139.5 44.4067 129.407 54.5 117 54.5ZM120.881 37.311C121.273 39.0104 121.472 40.966 121.472 43.1219C121.472 47.1649 120.776 50.4994 119.512 52.5113L119.407 52.6776L119.603 52.653C123.825 52.12 127.885 50.2404 131.036 47.3601L131.108 47.2944L120.809 36.9947L120.881 37.311ZM102.841 47.2483L102.77 47.1821L113.022 36.9309L112.948 37.2495C112.546 38.9643 112.342 40.9399 112.342 43.1219C112.342 47.1444 113.032 50.47 114.285 52.4871L114.39 52.6553L114.194 52.6283C109.992 52.0557 105.96 50.1458 102.841 47.2483ZM117.722 52.1862L117.891 51.9467C118.812 50.6452 119.795 47.6438 119.795 43.1219C119.795 38.5995 118.812 35.5977 117.891 34.2966L117.722 34.0571V52.1862ZM114.019 43.1219C114.019 38.7113 114.977 35.7104 115.875 34.3721L116.045 34.1177V52.1261L115.875 51.8717C114.977 50.5329 114.019 47.5315 114.019 43.1219ZM132.294 46.1079L132.36 46.0362C135.236 42.8904 137.115 38.8371 137.651 34.6236L137.676 34.4307L137.51 34.5323C135.488 35.7728 132.174 36.4557 128.181 36.4557C125.983 36.4557 123.995 36.2489 122.271 35.8413L121.951 35.7654L132.294 46.1079ZM101.529 45.9137C98.7177 42.7893 96.8781 38.7798 96.3494 34.6241L96.3252 34.4307L96.4905 34.5323C98.5123 35.7724 101.826 36.4553 105.82 36.4553C107.884 36.4553 109.772 36.2713 111.43 35.9084L111.74 35.8404L101.594 45.9863L101.529 45.9137ZM119.381 32.8916C120.695 33.8037 123.697 34.7787 128.18 34.7787C132.663 34.7787 135.665 33.8037 136.979 32.8916L137.223 32.722H119.136L119.381 32.8916ZM105.82 34.7787C101.337 34.7787 98.3348 33.8037 97.0207 32.8916L96.7761 32.722H114.867L114.627 32.8911C113.331 33.8037 110.337 34.7787 105.82 34.7787ZM128.18 29.0019C123.732 29.0019 120.73 29.9694 119.403 30.875L119.154 31.045H137.206L136.957 30.875C135.63 29.9699 132.628 29.0019 128.18 29.0019ZM97.043 30.875C98.3697 29.9694 101.373 29.0019 105.82 29.0019C110.311 29.0019 113.306 29.9699 114.612 30.8755L114.857 31.045H96.7938L97.043 30.875ZM115.876 11.9363C114.955 13.2379 113.972 16.2398 113.972 20.7616C113.972 25.2835 114.955 28.2854 115.876 29.587L116.045 29.8264V11.6969L115.876 11.9363ZM117.893 29.511L117.722 29.7654V11.7579L117.893 12.0123C118.79 13.3506 119.748 16.3516 119.748 20.7616C119.748 25.1717 118.79 28.1727 117.893 29.511ZM128.18 27.3253C132.151 27.3253 135.454 28.0017 137.48 29.2306L137.647 29.3321L137.62 29.1384C137.039 24.9584 135.131 20.9466 132.247 17.8418L132.182 17.771L121.932 28.0213L122.252 27.9449C123.978 27.5335 125.973 27.3253 128.18 27.3253ZM96.3797 29.1379C96.9526 25.0171 98.8211 21.0481 101.64 17.9634L101.705 17.8911L111.758 27.9435L111.447 27.8755C109.785 27.5098 107.892 27.3248 105.819 27.3248C101.849 27.3248 98.5467 28.0012 96.5199 29.2301L96.3526 29.3317L96.3797 29.1379ZM119.538 11.4901C120.756 13.5211 121.425 16.8137 121.425 20.7616C121.425 22.8756 121.234 24.8 120.857 26.4812L120.786 26.7947L130.986 16.5943L130.913 16.5286C127.79 13.7186 123.783 11.8795 119.63 11.3498L119.439 11.3252L119.538 11.4901ZM102.964 16.6399C106.03 13.8374 109.973 11.9722 114.066 11.388L114.258 11.361L114.16 11.5278C112.957 13.563 112.295 16.8425 112.295 20.7616C112.295 22.8509 112.483 24.7557 112.853 26.4239L112.922 26.736L102.892 16.7056L102.964 16.6399Z" fill="#133878"/>
</svg>
