<svg width="234" height="64" viewBox="0 0 234 64" fill="none" xmlns="http://www.w3.org/2000/svg">
<rect x="87" y="2" width="60" height="60" rx="30" fill="white"/>
<path fill-rule="evenodd" clip-rule="evenodd" d="M138.999 29.1391C140.032 30.9064 140.032 33.0936 138.999 34.8609L130.477 49.4372C129.461 51.176 127.598 52.2448 125.583 52.2448H108.417C106.402 52.2448 104.539 51.176 103.523 49.4372L95.0012 34.8609C93.968 33.0936 93.968 30.9064 95.0012 29.1391L103.523 14.5628C104.539 12.824 106.402 11.7552 108.417 11.7552H125.583C127.598 11.7552 129.461 12.824 130.477 14.5628L138.999 29.1391ZM101.187 34.2283L107.487 45.0041C107.21 45.3732 107.045 45.8336 107.045 46.3328C107.045 47.5471 108.017 48.5315 109.217 48.5315C110.354 48.5315 111.287 47.6462 111.38 46.5192H122.641C122.672 46.8279 122.767 47.1177 122.91 47.3752C123.267 48.0581 123.975 48.5236 124.791 48.5236C125.397 48.5236 125.944 48.2668 126.331 47.8547C126.727 47.4564 126.973 46.9042 126.973 46.2939C126.973 45.7829 126.801 45.3125 126.512 44.9391L132.805 34.1747C132.954 34.2075 133.109 34.2248 133.268 34.2248C134.467 34.2248 135.439 33.2404 135.439 32.0261C135.439 30.8119 134.467 29.8275 133.268 29.8275C133.195 29.8275 133.123 29.8311 133.051 29.8383L126.639 18.8693C126.838 18.5369 126.953 18.1467 126.953 17.7294C126.953 16.9784 126.581 16.3153 126.013 15.9187C125.668 15.672 125.246 15.5271 124.791 15.5271C124.616 15.5271 124.446 15.5485 124.284 15.5888C123.535 15.7665 122.936 16.3362 122.709 17.0722H111.265C111.226 16.9577 111.177 16.8475 111.12 16.7426C110.776 16.0232 110.049 15.5271 109.206 15.5271C108.255 15.5271 107.449 16.1606 107.178 17.0338C107.091 17.2718 107.044 17.5292 107.044 17.7979C107.044 18.188 107.144 18.5544 107.32 18.8721L100.887 29.8762C100.846 29.8739 100.805 29.8727 100.764 29.8727C100.745 29.8727 100.727 29.873 100.708 29.8734L100.706 29.8734C99.5321 29.8734 98.5806 30.8369 98.5806 32.0254C98.5806 32.2019 98.6016 32.3734 98.6412 32.5376C98.8524 33.5279 99.7224 34.27 100.764 34.27C100.908 34.27 101.05 34.2556 101.187 34.2283ZM102.584 30.873C102.806 31.2177 102.935 31.6293 102.935 32.0714C102.935 32.4645 102.833 32.8336 102.654 33.1529L106.459 39.8263L119.412 32.9388C119.406 32.8702 119.403 32.8006 119.403 32.7303C119.403 31.516 120.375 30.5317 121.574 30.5317C122.773 30.5317 123.745 31.516 123.745 32.7303C123.745 33.9446 122.773 34.9289 121.574 34.9289C121.139 34.9289 120.733 34.7991 120.393 34.5755L107.403 41.4824L108.926 44.1537C109.021 44.1408 109.118 44.1342 109.217 44.1342C109.985 44.1342 110.66 44.5385 111.046 45.1485L122.989 45.0835C123.377 44.4881 124.044 44.0953 124.801 44.0953C124.954 44.0953 125.102 44.1111 125.245 44.1413L131.501 33.305C131.247 32.9447 131.097 32.5032 131.097 32.0261C131.097 31.4504 131.315 30.9263 131.673 30.5343L127.711 23.585L114.328 30.7008C114.33 30.7355 114.33 30.7704 114.33 30.8055C114.33 32.0197 113.358 33.0041 112.159 33.0041C110.96 33.0041 109.988 32.0197 109.988 30.8055C109.988 29.5912 110.96 28.6068 112.159 28.6068C112.633 28.6068 113.071 28.7605 113.428 29.0212L126.767 21.929L125.546 19.7878C125.308 19.8785 125.051 19.928 124.781 19.928C123.879 19.928 123.106 19.371 122.778 18.5781L111.221 18.641C110.894 19.4368 110.119 19.9965 109.215 19.9965C109.101 19.9965 108.988 19.9875 108.879 19.9703L102.584 30.873Z" fill="#1CA3C2"/>
</svg>
