<svg width="234" height="64" viewBox="0 0 234 64" fill="none" xmlns="http://www.w3.org/2000/svg">
<rect x="87" y="2" width="60" height="60" rx="30" fill="white"/>
<path fill-rule="evenodd" clip-rule="evenodd" d="M120.828 11.5855C118.714 9.4715 115.286 9.4715 113.172 11.5855L96.5855 28.1723C94.4715 30.2863 94.4715 33.7137 96.5855 35.8277L113.172 52.4145C115.286 54.5285 118.714 54.5285 120.828 52.4145L125.223 48.0195V45.2337L124.71 45.0213L119.412 50.2509C118.003 51.6416 115.737 51.6378 114.333 50.2425L98.6062 34.6146C97.1799 33.1973 97.187 30.8878 98.622 29.4793L114.349 14.0425C115.749 12.6679 117.991 12.6642 119.396 14.0341L135.227 29.471C136.674 30.8812 136.681 33.2039 135.243 34.623L128.287 41.4898L119.774 33.3196C119.974 32.9051 120.086 32.4404 120.086 31.9494C120.086 30.2055 118.672 28.7917 116.928 28.7917C115.184 28.7917 113.77 30.2055 113.77 31.9494C113.77 33.6934 115.184 35.1071 116.928 35.1071C117.301 35.1071 117.66 35.0423 117.992 34.9233L126.511 42.9387L126.513 42.9372L126.549 42.974L126.669 43.087L126.665 43.0913L127.284 43.7192V45.9586L127.304 45.9378V51.9826C127.304 52.6222 127.823 53.1406 128.462 53.1406C129.102 53.1406 129.62 52.6222 129.62 51.9826V43.6218L137.415 35.8277C139.528 33.7137 139.528 30.2863 137.415 28.1723L120.828 11.5855Z" fill="#1CB5E0"/>
</svg>
